<?xml version="1.0" encoding="UTF-8"?>
<svg id="Layer_1" data-name="Layer 1" xmlns="http://www.w3.org/2000/svg" viewBox="0 0 441.99 151.41">
  <defs>
    <style>
      .cls-1 {
        fill: #fff;
      }

      .cls-2 {
        fill: #353c40;
      }
    </style>
  </defs>
  <rect class="cls-2" y="66.38" width="226.77" height="85.04"/>
  <g>
    <g>
      <path class="cls-2" d="M310.21,11.91c0-4.14,3.2-7.29,7.47-7.29,3.41,0,6.25,2.04,6.96,4.84h-3.92c-.65-.9-1.74-1.45-3.04-1.45-2.2,0-3.88,1.67-3.88,3.9s1.67,3.9,3.88,3.9c1.51,0,2.78-.76,3.37-1.9h-2.96v-3.18h6.86v1.22c0,4.12-3.04,7.25-7.27,7.25s-7.47-3.14-7.47-7.29Z"/>
      <path class="cls-2" d="M326.11,4.86h3.51v10.78h5.41v3.31h-8.92V4.86Z"/>
      <path class="cls-2" d="M334.85,11.91c0-4.14,3.2-7.29,7.47-7.29s7.47,3.14,7.47,7.29-3.23,7.29-7.47,7.29-7.47-3.14-7.47-7.29ZM346.17,11.91c0-2.22-1.67-3.9-3.86-3.9s-3.88,1.67-3.88,3.9,1.67,3.9,3.88,3.9,3.86-1.67,3.86-3.9Z"/>
      <path class="cls-2" d="M350.67,4.86h7.14c2.12,0,3.8,1.53,3.8,3.63,0,1.27-.61,2.41-1.49,2.96,1.27.53,2.16,2.02,2.16,3.65,0,2.27-1.71,3.84-4,3.84h-7.61V4.86ZM354.06,8.03v2.21h2.86c.61,0,1.1-.47,1.1-1.1s-.47-1.1-1.1-1.1h-2.86ZM354.06,13.21v2.57h3.35c.73,0,1.29-.57,1.29-1.29s-.55-1.29-1.29-1.29h-3.35Z"/>
      <path class="cls-2" d="M367.45,4.86h4.14l5.18,14.08h-3.84l-.76-2.22h-5.41l-.73,2.22h-3.78l5.18-14.08ZM371.11,13.5l-1.61-4.76-1.61,4.76h3.23Z"/>
      <path class="cls-2" d="M377.41,4.86h3.51v10.78h5.41v3.31h-8.92V4.86Z"/>
      <path class="cls-2" d="M387.47,4.86h9.12v3.31h-5.61v2.2h4.84v3.31h-4.84v5.27h-3.51V4.86Z"/>
      <path class="cls-2" d="M397,11.91c0-4.14,3.2-7.29,7.47-7.29s7.47,3.14,7.47,7.29-3.23,7.29-7.47,7.29-7.47-3.14-7.47-7.29ZM408.32,11.91c0-2.22-1.67-3.9-3.86-3.9s-3.88,1.67-3.88,3.9,1.67,3.9,3.88,3.9,3.86-1.67,3.86-3.9Z"/>
      <path class="cls-2" d="M413.26,4.86h6.43c2.88,0,5.04,2.06,5.04,4.84,0,1.92-1.08,3.45-2.74,4.18l3.16,5.06h-4.35l-2.67-4.59h-1.37v4.59h-3.51V4.86ZM416.77,8.17v3.12h2.84c.88,0,1.53-.67,1.53-1.57s-.65-1.55-1.53-1.55h-2.84Z"/>
      <path class="cls-2" d="M426.07,4.86h4.35l3.63,6.92,3.65-6.92h4.29v14.08h-3.51v-8.82l-3.45,6.59h-2l-3.45-6.59v8.82h-3.51V4.86Z"/>
    </g>
    <g>
      <path class="cls-2" d="M289.13,0s-4.29,3.85-4.22,8.8,4.22,8.51,4.22,8.51c0,0,4.15-3.55,4.22-8.51s-4.22-8.8-4.22-8.8Z"/>
      <path class="cls-2" d="M302.91,11.72s-5.75-.4-9.25,3.11-3.16,8.96-3.16,8.96c0,0,5.44.5,9.04-2.91,3.61-3.4,3.37-9.16,3.37-9.16Z"/>
      <path class="cls-2" d="M275.35,11.72s5.75-.4,9.25,3.11c3.5,3.51,3.16,8.96,3.16,8.96,0,0-5.44.5-9.04-2.91s-3.37-9.16-3.37-9.16Z"/>
    </g>
  </g>
  <g>
    <g>
      <path class="cls-1" d="M56.61,108.9c0-4.14,3.2-7.29,7.47-7.29,3.41,0,6.25,2.04,6.96,4.84h-3.92c-.65-.9-1.74-1.45-3.04-1.45-2.2,0-3.88,1.67-3.88,3.9s1.67,3.9,3.88,3.9c1.51,0,2.78-.76,3.37-1.9h-2.96v-3.18h6.86v1.22c0,4.12-3.04,7.25-7.27,7.25s-7.47-3.14-7.47-7.29Z"/>
      <path class="cls-1" d="M72.51,101.85h3.51v10.78h5.41v3.31h-8.92v-14.08Z"/>
      <path class="cls-1" d="M81.25,108.9c0-4.14,3.2-7.29,7.47-7.29s7.47,3.14,7.47,7.29-3.23,7.29-7.47,7.29-7.47-3.14-7.47-7.29ZM92.57,108.9c0-2.22-1.67-3.9-3.86-3.9s-3.88,1.67-3.88,3.9,1.67,3.9,3.88,3.9,3.86-1.67,3.86-3.9Z"/>
      <path class="cls-1" d="M97.07,101.85h7.14c2.12,0,3.8,1.53,3.8,3.63,0,1.27-.61,2.41-1.49,2.96,1.27.53,2.16,2.02,2.16,3.65,0,2.27-1.71,3.84-4,3.84h-7.61v-14.08ZM100.46,105.02v2.21h2.86c.61,0,1.1-.47,1.1-1.1s-.47-1.1-1.1-1.1h-2.86ZM100.46,110.2v2.57h3.35c.73,0,1.29-.57,1.29-1.29s-.55-1.29-1.29-1.29h-3.35Z"/>
      <path class="cls-1" d="M113.85,101.85h4.14l5.18,14.08h-3.84l-.76-2.22h-5.41l-.73,2.22h-3.78l5.18-14.08ZM117.51,110.49l-1.61-4.76-1.61,4.76h3.23Z"/>
      <path class="cls-1" d="M123.81,101.85h3.51v10.78h5.41v3.31h-8.92v-14.08Z"/>
      <path class="cls-1" d="M133.87,101.85h9.12v3.31h-5.61v2.2h4.84v3.31h-4.84v5.27h-3.51v-14.08Z"/>
      <path class="cls-1" d="M143.4,108.9c0-4.14,3.2-7.29,7.47-7.29s7.47,3.14,7.47,7.29-3.23,7.29-7.47,7.29-7.47-3.14-7.47-7.29ZM154.72,108.9c0-2.22-1.67-3.9-3.86-3.9s-3.88,1.67-3.88,3.9,1.67,3.9,3.88,3.9,3.86-1.67,3.86-3.9Z"/>
      <path class="cls-1" d="M159.66,101.85h6.43c2.88,0,5.04,2.06,5.04,4.84,0,1.92-1.08,3.45-2.74,4.18l3.16,5.06h-4.35l-2.67-4.59h-1.37v4.59h-3.51v-14.08ZM163.17,105.16v3.12h2.84c.88,0,1.53-.67,1.53-1.57s-.65-1.55-1.53-1.55h-2.84Z"/>
      <path class="cls-1" d="M172.47,101.85h4.35l3.63,6.92,3.65-6.92h4.29v14.08h-3.51v-8.82l-3.45,6.59h-2l-3.45-6.59v8.82h-3.51v-14.08Z"/>
    </g>
    <g>
      <path class="cls-1" d="M35.53,96.99s-4.29,3.85-4.22,8.8,4.22,8.51,4.22,8.51c0,0,4.15-3.55,4.22-8.51.07-4.96-4.22-8.8-4.22-8.8Z"/>
      <path class="cls-1" d="M49.31,108.71s-5.75-.4-9.25,3.11-3.16,8.96-3.16,8.96c0,0,5.44.5,9.04-2.91,3.61-3.4,3.37-9.16,3.37-9.16Z"/>
      <path class="cls-1" d="M21.75,108.71s5.75-.4,9.25,3.11c3.5,3.51,3.16,8.96,3.16,8.96,0,0-5.44.5-9.04-2.91s-3.37-9.16-3.37-9.16Z"/>
    </g>
  </g>
</svg>